HIERARCHY
ROOT hip
{
	OFFSET 0.000000 0.000000 0.000000
	CHANNELS 6 Xposition Yposition Zposition Zrotation Yrotation Xrotation 
	JOINT lhipjoint
	{
		OFFSET 0.000000 0.000000 0.000000
		CHANNELS 3 Zrotation Yrotation Xrotation
		JOINT lfemur
		{
			OFFSET 1.363060 -1.794630 0.839290
			CHANNELS 3 Zrotation Yrotation Xrotation
			JOINT ltibia
			{
				OFFSET 2.448110 -6.726130 0.000000
				CHANNELS 3 Zrotation Yrotation Xrotation
				JOINT lfoot
				{
					OFFSET 2.562200 -7.039590 0.000000
					CHANNELS 3 Zrotation Yrotation Xrotation
					JOINT ltoes
					{
						OFFSET 0.157640 -0.433110 2.322550
						CHANNELS 3 Zrotation Yrotation Xrotation
						End Site
						{
							OFFSET 0.000000 0.000000 0.000000
						}
					}
				}
			}
		}
	}
	JOINT rhipjoint
	{
		OFFSET 0.000000 0.000000 0.000000
		CHANNELS 3 Zrotation Yrotation Xrotation
		JOINT rfemur
		{
			OFFSET -1.305520 -1.794630 0.839290
			CHANNELS 3 Zrotation Yrotation Xrotation
			JOINT rtibia
			{
				OFFSET -2.542530 -6.985550 0.000000
				CHANNELS 3 Zrotation Yrotation Xrotation
				JOINT rfoot
				{
					OFFSET -2.568260 -7.056230 0.000000
					CHANNELS 3 Zrotation Yrotation Xrotation
					JOINT rtoes
					{
						OFFSET -0.164730 -0.452590 2.363150
						CHANNELS 3 Zrotation Yrotation Xrotation
						End Site
						{
							OFFSET 0.000000 0.000000 0.000000
						}
					}
				}
			}
		}
	}
	JOINT lowerback
	{
		OFFSET 0.000000 0.000000 0.000000
		CHANNELS 3 Zrotation Yrotation Xrotation
		JOINT upperback
		{
			OFFSET 0.028270 2.035590 -0.193380
			CHANNELS 3 Zrotation Yrotation Xrotation
			JOINT thorax
			{
				OFFSET 0.056720 2.048850 -0.042750
				CHANNELS 3 Zrotation Yrotation Xrotation
				JOINT lowerneck
				{
					OFFSET 0.000000 0.000000 0.000000
					CHANNELS 3 Zrotation Yrotation Xrotation
					JOINT upperneck
					{
						OFFSET -0.054170 1.746240 0.172020
						CHANNELS 3 Zrotation Yrotation Xrotation
						JOINT head
						{
							OFFSET 0.104070 1.761360 -0.123970
							CHANNELS 3 Zrotation Yrotation Xrotation
							End Site
							{
								OFFSET 0.000000 0.000000 0.000000
							}
						}
					}
				}
				JOINT lclavicle
				{
					OFFSET 0.000000 0.000000 0.000000
					CHANNELS 3 Zrotation Yrotation Xrotation
					JOINT lhumerus
					{
						OFFSET 3.362410 1.200890 -0.311210
						CHANNELS 3 Zrotation Yrotation Xrotation
						JOINT lradius
						{
							OFFSET 4.983000 -0.000000 -0.000000
							CHANNELS 3 Zrotation Yrotation Xrotation
							JOINT lwrist
							{
								OFFSET 3.483560 -0.000000 -0.000000
								CHANNELS 3 Zrotation Yrotation Xrotation
								JOINT lhand
								{
									OFFSET 0.000000 0.000000 0.000000
									CHANNELS 3 Zrotation Yrotation Xrotation
									JOINT lfingers
									{
										OFFSET 0.715260 -0.000000 -0.000000
										CHANNELS 3 Zrotation Yrotation Xrotation
										End Site
										{
											OFFSET 0.000000 0.000000 0.000000
										}
									}
								}
								JOINT lthumb
								{
									OFFSET 0.000000 0.000000 0.000000
									CHANNELS 3 Zrotation Yrotation Xrotation
									End Site
									{
										OFFSET 0.000000 0.000000 0.000000
									}
								}
							}
						}
					}
				}
				JOINT rclavicle
				{
					OFFSET 0.000000 0.000000 0.000000
					CHANNELS 3 Zrotation Yrotation Xrotation
					JOINT rhumerus
					{
						OFFSET -3.136600 1.374050 -0.404650
						CHANNELS 3 Zrotation Yrotation Xrotation
						JOINT rradius
						{
							OFFSET -5.241900 -0.000000 -0.000000
							CHANNELS 3 Zrotation Yrotation Xrotation
							JOINT rwrist
							{
								OFFSET -3.444170 -0.000000 -0.000000
								CHANNELS 3 Zrotation Yrotation Xrotation
								JOINT rhand
								{
									OFFSET 0.000000 0.000000 0.000000
									CHANNELS 3 Zrotation Yrotation Xrotation
									JOINT rfingers
									{
										OFFSET -0.622530 -0.000000 -0.000000
										CHANNELS 3 Zrotation Yrotation Xrotation
										End Site
										{
											OFFSET 0.000000 0.000000 0.000000
										}
									}
								}
								JOINT rthumb
								{
									OFFSET 0.000000 0.000000 0.000000
									CHANNELS 3 Zrotation Yrotation Xrotation
									End Site
									{
										OFFSET 0.000000 0.000000 0.000000
									}
								}
							}
						}
					}
				}
			}
		}
	}
}
MOTION
Frames: 9
Frame Time: 0.008333
1.245600 19.207048 3.796216 -150.671153 6.642477 -174.401704 9.083070 4.476325 0.483853 8.194113 -6.804097 -24.972643 4.610198 13.805856 42.405529 3.190743 -2.374967 11.236962 0.309300 -3.575500 -9.885500 -7.637945 -5.295249 1.012398 17.319788 12.711961 -32.410029 -15.417306 -19.848994 80.526978 -3.496555 8.255395 5.346202 -1.838600 8.521400 -24.309400 -10.847116 3.557575 12.628219 -0.614010 6.892137 1.989932 -2.615202 6.170848 14.588419 -8.413698 -14.277455 -6.751250 16.235803 -22.408417 2.220493 9.836100 -9.249000 4.766300 0.747099 -0.167934 4.631240 -69.633501 -20.522140 47.950075 45.041244 -57.083623 -20.742460 1.800481 -0.414818 28.690772 58.622130 -19.012345 -28.970500 -7.125000 0.000000 0.000000 16.635000 -4.091200 -18.555600 -3.408870 1.039842 4.218642 89.778286 -22.628968 44.508347 -15.932435 39.430231 -2.858191 -0.149049 -1.414158 12.877942 -2.983330 13.297278 -0.801600 7.125000 0.000000 0.000000 16.436000 -15.627900 11.907600 
1.264482 19.199967 3.809762 -151.029364 6.654958 -174.444948 9.039720 4.476806 0.485391 7.915367 -7.124155 -24.924772 4.621245 13.820698 42.464528 3.052789 -2.032777 11.062660 0.326300 -3.671600 -10.154500 -7.625856 -5.330006 1.022207 18.728736 13.376094 -31.737210 -15.315014 -19.742737 80.211305 -3.485037 8.182193 4.530156 -2.022600 8.912900 -25.523400 -10.981185 3.584220 12.774466 -0.609152 6.896253 1.988418 -2.489520 6.150178 14.495838 -8.547123 -14.191068 -6.622817 16.179260 -22.277338 2.358915 9.849600 -9.233300 4.780100 0.765921 -0.194200 4.641968 -69.944749 -19.839658 48.949557 45.361696 -57.311527 -20.855868 1.811339 -0.391867 28.399303 58.332019 -19.039602 -28.748800 -7.125000 0.000000 0.000000 16.464700 -3.972800 -18.316900 -3.425087 1.045868 4.221500 89.778164 -22.618690 44.231369 -15.899536 39.384929 -2.864240 -0.154300 -1.410098 12.943536 -3.006721 13.330990 -0.808100 7.125000 0.000000 0.000000 16.421300 -15.597600 11.907200 
1.282030 19.195246 3.823102 -151.379227 6.685871 -174.510211 8.994184 4.482900 0.491624 7.638585 -7.481199 -24.818360 4.629729 13.827018 42.509128 2.908950 -1.679232 10.891618 0.334800 -3.718300 -10.285400 -7.624882 -5.368853 1.031640 20.136547 13.944654 -31.019221 -15.160751 -19.626649 79.747536 -3.481535 8.142349 3.818535 -2.194600 9.260100 -26.612400 -11.056678 3.598338 12.927065 -0.599145 6.881483 1.987264 -2.333628 6.115506 14.397820 -8.759442 -14.075677 -6.464202 16.109161 -22.107343 2.539422 9.885800 -9.210500 4.811900 0.776236 -0.222461 4.654350 -70.268684 -19.126844 49.856244 45.747564 -57.559441 -21.012537 1.824326 -0.355278 28.159417 57.898266 -18.869955 -28.194000 -7.125000 0.000000 0.000000 16.274200 -3.504800 -17.960600 -3.442477 1.046075 4.226632 89.698811 -22.617010 43.943809 -15.854378 39.323222 -2.873423 -0.161561 -1.401304 12.969133 -3.033015 13.384388 -0.815100 7.125000 0.000000 0.000000 16.406200 -15.552100 11.912200 
1.299680 19.189910 3.836751 -151.730631 6.734041 -174.600417 8.953121 4.491281 0.496989 7.348995 -7.826826 -24.708196 4.651434 13.844054 42.598629 2.759337 -1.318994 10.659534 0.356200 -3.834200 -10.610600 -7.628489 -5.410796 1.041971 21.505001 14.400828 -30.275177 -14.964246 -19.503932 79.172076 -3.518009 8.272699 3.277498 -2.304900 9.474300 -27.290500 -11.050540 3.602359 13.075972 -0.593914 6.865356 1.990282 -2.261277 6.106303 14.309692 -8.928836 -13.948043 -6.272946 16.040960 -21.918398 2.714207 9.927200 -9.179800 4.816400 0.777824 -0.243519 4.665446 -70.488510 -18.551477 50.819025 45.918613 -57.687613 -21.020223 1.830509 -0.317049 27.871494 57.454584 -18.632503 -27.553800 -7.125000 0.000000 0.000000 16.104200 -2.924800 -17.600600 -3.462809 1.052056 4.238195 89.658701 -22.606021 43.612862 -15.804984 39.281545 -2.881377 -0.169375 -1.395341 13.032441 -3.060095 13.446805 -0.823300 7.125000 0.000000 0.000000 16.389300 -15.495400 11.919800 
1.317228 19.182829 3.850399 -152.073178 6.797978 -174.675105 8.923850 4.501452 0.497151 7.057761 -8.158368 -24.592573 4.671403 13.858674 42.681913 2.608086 -0.955432 10.451786 0.368900 -3.901500 -10.799700 -7.632584 -5.453280 1.048532 22.835482 14.735413 -29.548465 -14.717453 -19.376472 78.456211 -3.591274 8.562076 2.876978 -2.364600 9.587400 -27.650800 -10.949907 3.579066 13.159911 -0.601698 6.868392 2.012936 -2.359861 6.157136 14.372179 -8.882423 -13.841082 -6.244497 15.981798 -21.766107 2.888430 9.898700 -9.144900 4.827900 0.763651 -0.223727 4.664298 -70.500889 -18.259054 51.848633 45.889635 -57.701153 -20.896819 1.828938 -0.289171 27.501152 57.086248 -18.432743 -27.004100 -7.125000 0.000000 0.000000 15.970300 -2.414300 -17.304000 -3.460448 1.037437 4.247679 89.706922 -22.432226 43.303152 -15.751461 39.277629 -2.883017 -0.173784 -1.400201 13.040727 -3.070941 13.479255 -0.827400 7.125000 0.000000 0.000000 16.381500 -15.458300 11.927300 
1.334161 19.177390 3.863329 -152.451105 6.868019 -174.775185 8.894511 4.514898 0.496999 6.717653 -8.494387 -24.444277 4.686942 13.866253 42.756044 2.461237 -0.611529 10.226356 0.382500 -3.971700 -10.997200 -7.638727 -5.498915 1.053051 24.101446 14.969719 -28.766594 -14.421273 -19.233981 77.592920 -3.693236 8.980296 2.579965 -2.389400 9.633900 -27.799200 -10.840810 3.546999 13.238474 -0.613894 6.878902 2.043055 -2.517849 6.227026 14.483041 -8.709132 -13.740058 -6.278886 15.894195 -21.609941 3.070703 9.810400 -9.104100 4.819100 0.748091 -0.189703 4.657020 -70.406074 -18.046783 52.844170 45.858543 -57.702122 -20.778874 1.827670 -0.267970 27.111842 56.694649 -18.292695 -26.493100 -7.125000 0.000000 0.000000 15.805900 -1.964700 -16.989600 -3.439588 1.018110 4.256539 89.789280 -22.201948 42.993084 -15.711241 39.294606 -2.887775 -0.179533 -1.411139 12.966948 -3.101921 13.513824 -0.836700 7.125000 0.000000 0.000000 16.361100 -15.412400 11.928000 
1.350374 19.172875 3.876670 -152.849444 6.948640 -174.844841 8.868573 4.528970 0.495316 6.351125 -8.788830 -24.323198 4.694899 13.869736 42.808206 2.311826 -0.260265 10.039032 0.400600 -4.063500 -11.255300 -7.652058 -5.543354 1.056761 25.299715 15.134007 -28.011837 -14.072672 -19.081589 76.586315 -3.819991 9.547244 2.510030 -2.338100 9.537500 -27.491600 -10.734939 3.517313 13.263030 -0.625729 6.906327 2.075723 -2.671784 6.300808 14.636639 -8.473935 -13.658435 -6.365207 15.783607 -21.476504 3.251277 9.679500 -9.070000 4.802800 0.738958 -0.144226 4.645898 -70.282752 -17.922841 53.843333 45.818766 -57.696569 -20.655946 1.826436 -0.249515 26.715903 56.297774 -18.192509 -26.024200 -7.125000 0.000000 0.000000 15.626000 -1.569500 -16.674200 -3.404460 0.986345 4.263860 89.865320 -21.911071 42.696538 -15.675187 39.310757 -2.893824 -0.183662 -1.424109 12.836829 -3.127693 13.527656 -0.843800 7.125000 0.000000 0.000000 16.345100 -15.384900 11.925500 
1.366691 19.172978 3.888676 -153.326954 7.027811 -174.870515 8.836439 4.542305 0.493757 5.905321 -9.053994 -24.237913 4.688683 13.865677 42.824121 2.163713 0.082055 9.847629 0.427000 -4.193900 -11.622800 -7.674075 -5.582946 1.059517 26.360272 15.241357 -27.317739 -13.681282 -18.920987 75.447698 -3.948062 10.158580 2.559328 -2.253100 9.374400 -26.973700 -10.757179 3.487958 13.213071 -0.629184 6.922269 2.101424 -2.684820 6.318990 14.793008 -8.304347 -13.561162 -6.475157 15.668801 -21.319116 3.454462 9.550000 -9.027000 4.801800 0.741443 -0.107940 4.631658 -70.201542 -17.765510 54.773615 45.837501 -57.727997 -20.574529 1.830062 -0.229420 26.266466 55.806954 -18.199822 -25.601800 -7.125000 0.000000 0.000000 15.359100 -1.283700 -16.291000 -3.365972 0.935826 4.266322 89.865374 -21.588604 42.390261 -15.598897 39.263072 -2.896346 -0.190246 -1.426707 12.647091 -3.140203 13.588079 -0.847900 7.125000 0.000000 0.000000 16.339400 -15.322300 11.943900 
1.381674 19.175646 3.900375 -153.806073 7.103373 -174.898343 8.805302 4.558548 0.494364 5.453609 -9.296949 -24.143246 4.671905 13.851228 42.805801 2.029009 0.390145 9.689774 0.446200 -4.285900 -11.882400 -7.702357 -5.624333 1.060137 27.371186 15.267322 -26.612252 -13.251895 -18.742240 74.191698 -4.076177 10.818160 2.717122 -2.093300 9.057800 -25.976100 -10.755653 3.456392 13.153579 -0.629524 6.938373 2.127881 -2.680544 6.331566 14.952603 -8.152862 -13.464837 -6.577967 15.577419 -21.167312 3.635520 9.438700 -8.982000 4.796700 0.738028 -0.073210 4.614404 -70.042112 -17.598448 55.714773 45.946863 -57.797624 -20.551863 1.838669 -0.213484 25.787269 55.219930 -18.286653 -25.183400 -7.125000 0.000000 0.000000 15.012700 -1.055600 -15.836600 -3.323344 0.882528 4.270969 89.852216 -21.246433 42.049551 -15.534842 39.219699 -2.902357 -0.193217 -1.428338 12.402123 -3.098714 13.620943 -0.836800 7.125000 0.000000 0.000000 16.369900 -15.290100 11.980200 
